<svg xmlns="http://www.w3.org/2000/svg" width="1920" height="969" fill="none"><g clip-path="url(#a)" opacity=".1"><path fill="url(#b)" d="M564.902-493.286c-.144 10.109 4.484 15.514 14.314 15.84a10237.1 10237.1 0 0 0 54.269 1.651c10.013.279 20.025.279 30.038.643 21.322.788 42.634 2.132 63.965 2.516 26.765.48 53.549.211 80.323.316 6.48.029 12.96.192 19.44.413 12.154.413 24.317 1.565 36.442 1.219 16.454-.47 32.87-2.044 49.305-3.177 8.352-.576 16.685-1.546 25.047-1.699 5.165-.096 7.277-2.324 7.968-7.076 1.507-10.406 3.417-20.755 4.79-31.18.72-5.453 1.21-10.944 1.728-16.426h-3.6c-.72 5.962-1.478 11.923-2.265 17.875-1.162 8.813-2.544 17.597-3.869 26.391-.634 4.185-2.371 6.796-7.363 6.72-6.183-.096-12.384.528-18.567.969-11.309.807-22.598 1.853-33.907 2.535-18.595 1.113-37.171 1.747-55.814.048-8.813-.807-17.77.009-26.66-.068-7.008-.067-14.006-.499-21.004-.547-24.893-.192-49.796-.067-74.679-.489-16.742-.288-33.475-1.306-50.217-1.988-8.909-.364-17.828-.748-26.736-1.075-15.668-.566-31.335-1.085-47.002-1.632-7.037-.249-10.166-3.101-10.954-10.051-1.2-10.723-2.889-21.427-3.369-32.189-.096-2.16-.154-4.32-.192-6.48h-3.735c.471 6.931.97 13.853 1.421 20.784.355 5.386.97 10.781.893 16.167l-.01-.01z"/><path fill="url(#c)" d="M55.785 560.717c1.21-17.52 2.074-35.107 4.32-52.502 2.66-20.688 3.687-41.424 4.484-62.208.096-2.419.46-4.829.595-7.258.845-15.043 1.651-30.096 2.544-46.483-18.528-1.747-36.24-3.321-53.933-5.097-4.598-.461-9.197-.893-13.805-1.296v3.024c12.02.844 24.02 2.035 36.02 3.187 8.198.787 16.339 2.102 24.508 3.177.173.624.355 1.248.528 1.872-1.987 1.565-3.782 3.533-6 4.637-9.417 4.704-18.998 9.072-28.425 13.757-4.839 2.4-9.447 5.251-14.199 7.834-4.118 2.236-8.285 4.377-12.432 6.556v4.167c20.803-10.877 41.799-21.667 63.053-32.496 0 6.288.23 11.078-.038 15.84-2.698 47.453-5.54 94.905-11.876 142.051-.086.624-1.017 1.142-1.708 1.862-16.484-12.124-32.948-24.24-49.43-36.355v4.877c9.32 6.97 18.623 13.968 27.954 20.928 5.184 3.869 10.484 7.594 15.428 11.741 2.14 1.795 3.523 4.483 5.98 7.747-11.654 2.169-22.032 2.65-32.476 2.333-5.626-.173-11.261-.317-16.887-.471v2.64c13.67.394 27.341.788 41.021.816 10.867.02 14.016-4.051 14.765-14.88h.01z"/><path fill="url(#d)" d="M102.221 69.12c-8.227 13.248-8.362 22.772-.557 28.522 6.24-6.182 8.16-15.993 16.685-20.333 8.093-4.118 16.253-7.996 26.918-8.419-1.805-2.035-2.515-3.494-3.648-3.993-4.646-2.084-9.753-3.322-14.083-5.885-9.946-5.895-20.554-11.117-26.467-22.032-.634-1.171-3.447-2.141-4.704-1.69-1.114.403-2.189 2.995-2.026 4.483.605 5.194 2.736 9.783 6.327 13.776 2.592 2.88 4.675 6.212 7.603 10.176-2.688.624-3.917 1.143-5.146 1.152-11.05.068-22.099-.067-33.149.077-23.328.307-46.646.72-69.974 1.037v3.264c32.333-.355 64.656-.816 96.989-1.162 1.651-.019 3.312.634 5.232 1.028zm-2.448-22.51c.413-.384.825-.759 1.248-1.143 7.478 5.472 14.966 10.944 23.28 17.02-6.96 2.334-11.04 1.556-14.381-3.906-2.698-4.407-6.71-8.007-10.138-11.962l-.01-.01zm22.742 22.214c-6.864 5.645-13.853 11.405-21.149 17.405-1.161-12.307 8.237-19.555 21.149-17.405z"/><path fill="url(#e)" d="M1884.37 571.028c-15.37-.643-30.73-1.709-46.1-2.573-1.36-.077-2.71-.067-4.06-.077-19.23-.182-38.46-.221-57.68-.585-20.8-.404-41.64-.624-62.4-1.824-23.44-1.354-46.82-3.696-70.22-5.655-8.34-.701-16.68-1.44-25-2.313-2.63-.279-5.2-1.056-9.27-1.92 5.41-3.754 9.54-7.076 14.09-9.687 17.82-10.224 36.03-19.785 53.59-30.422 21.97-13.306 43.52-27.303 65.08-41.261 5.65-3.658 10.45-5.558 17.86-3.638 15.11 3.916 30.68 6.345 46.2 8.313 10.07 1.277 20.59 2.199 30.08-3.331 3.98-2.323 7.32-.845 10.53 1.392 14.82 10.368 29.74 20.602 44.35 31.258 9.58 6.988 19.1 14.064 28.59 21.168v-4.877c-23.78-17.491-47.59-35.002-71.49-52.589 23.63-13.037 47.43-25.738 71.49-38.323v-4.167c-.12.068-.26.135-.38.202-13.84 7.286-27.58 14.774-41.54 21.821-13.44 6.777-26.18 14.803-40.76 19.536-9.08 2.957-17.68 6.614-27.41 5.232a743.718 743.718 0 0 1-24.79-3.936c-6.91-1.219-13.91-2.266-20.61-4.272-6.15-1.853-12.06-4.647-17.87-7.459-13.12-6.346-26.11-12.96-39.16-19.45-1.2-.595-2.55-.96-3.68-1.661-8.67-5.405-17.16-11.117-25.98-16.233-7.12-4.128-14.7-7.44-21.96-11.319-6.66-3.542-13.22-7.248-19.71-11.069-9.03-5.299-17.95-10.761-26.93-16.156-.02-.653-.03-1.306-.05-1.968 3.97-1.383 7.86-3.668 11.91-4.004 22.64-1.862 45.31-2.793 68.02-.873 8.07.681 16.24.221 24.34.739 28.83 1.843 57.63 4.099 86.46 5.76 14.56.845 29.16.653 43.74 1.104 22.13.682 44.26 1.229 66.37 2.362 3.33.172 6.66.384 9.99.614v-3.024c-20.44-1.795-40.91-2.966-61.45-2.918-16.97.038-33.97.038-50.92-.788-20.76-1.008-41.49-2.937-62.23-4.396-14.28-1.008-28.55-2.199-42.84-2.746-14.52-.566-29.07-.72-43.6-.557-13.23.154-26.5.528-39.68 1.642-12.7 1.065-16.75 5.827-17.78 18.499-.02.269-.02.538-.04.816-1.56 16.925-3.32 33.83-4.64 50.774-.93 11.847-1.37 23.732-1.82 35.616-.15 4.004.64 8.036.45 12.029-.75 15.648-1.76 31.287-2.56 46.925-.11 2.112-.22 4.829.91 6.298 5.51 7.094 11.63 13.516 21.55 14.064 8.36.46 16.71 1.027 25.04 1.708 23.14 1.911 46.23 4.33 69.41 5.732 19.69 1.19 39.44 1.296 59.16 1.756 18.62.432 37.23.538 55.84 1.124 14.86.46 29.7 1.545 44.56 2.14 10.28.404 20.57.413 30.85.653 6.6.154 13.19.346 19.79.538v-2.64c-11.88-.317-23.75-.624-35.63-1.123l-.01.019zm-287.33-37.392c1.02-12.096 1.58-24.25 2.08-36.384.63-15.37.61-30.778 1.6-46.128 1.31-20.189 3.33-40.33 5.09-60.49.06-.701.58-1.363 1.06-2.448 1.13.519 2.1.845 2.94 1.363 13.09 8.064 25.62 17.271 39.38 23.914 13.32 6.422 26.11 13.699 39.15 20.563 7.11 3.735 13.96 7.968 21.08 11.664 7.91 4.099 16.07 7.709 23.98 11.808 4.76 2.467 9.26 5.453 15.14 8.967-46.48 32.572-95.64 58.358-144.27 87.004-4.75-5.875-7.89-11.923-7.21-19.843l-.02.01z"/><path fill="url(#f)" d="M1601.66-487.535c11.88 22.886 31.35 36.681 55.36 44.361 7.88 2.515 16.27 3.437 21.18 4.426 19.23-1.066 34.55-3.763 49.23-9.763 16.05-6.567 29.65-16.925 42.03-28.628 9.44-8.908 16.91-19.766 20.59-32.486 1.99-6.864 3.23-13.728 3.85-20.602h-4.1c-2.4 18.682-10.18 37.776-22.13 47.108-5.15-4.426-10.51-8.823-15.62-13.479-9.74-8.87-19.17-18.057-29.02-26.784-2.69-2.381-5.48-4.627-8.31-6.845h-6.36c2.56 1.767 5.06 3.61 7.38 5.655 7.86 6.941 14.9 14.803 22.39 22.176 1.9 1.872 4.09 3.494 6.3 5.03 7.35 5.107 13.53 11.367 19.77 18.691-15.77 14.832-32.24 26.362-52.46 31.172-13.8 3.283-27.8 4.608-42.1 3.158-9.7-.989-18.19-4.944-26.73-8.88-13.26-6.106-23.81-15.629-32.42-27.36-.64-.864-1.16-1.834-1.64-2.803-.35-.701-.56-1.479-.98-2.554 4.44-3.801 8.61-8.045 13.41-11.366 12.42-8.592 25.06-16.867 37.71-25.104 4.07-2.64 8.15-5.242 12.24-7.815h-6.94c-19.69 12.893-39.48 25.853-59.92 39.236-5.66-13.258-8.97-26.314-10.15-39.236h-4.73c.63 8.544 3.17 17.04 5.44 25.383 1.63 5.942 3.88 11.846 6.72 17.309h.01z"/><path fill="url(#g)" d="M1467.73 434.333c-3.65 22.378-7.9 44.659-11.74 67.008-.66 3.83-2.24 5.75-6.26 5.904-4.02.153-8.02.749-12.02 1.219-5.75.672-8.87-1.632-8.43-7.613.99-13.44 1.83-26.956 4.07-40.224 3.32-19.68 7.49-39.235 11.92-58.704 1.97-8.62 4.85-17.184 11.19-23.932 4.22-4.484 7.93-4.522 10.79.806 2.12 3.926 3.06 8.544 4.07 12.96.53 2.285.1 4.8.1 7.2l.61.058c-1.41 11.769-2.39 23.606-4.3 35.299v.019zm17.19 71.299c-2.62 0-3.82-1.507-3.92-4.061-.12-3.504 3.17-8.092 6.14-8.15 3.7-.067 4.01 2.813 4.38 5.53.02 3.446-3.11 6.681-6.6 6.681z"/><path fill="url(#h)" d="M1104.99-325.027c-1.63-.931-3.32-1.891-5.12-2.381-13.34-3.628-25.76-9.196-37.14-17.126-.96-.662-2.58-.365-5.06-.643 11.14 12.931 26.7 15.293 40.33 22.137-4.31 5.136-9.03 3.197-13.38 3.13-9.45-.154-19.21-1.882-28.26-.058-19.02 3.821-38.18 7.882-55.77 16.656-12.778 6.375-26.122 11.943-36.788 21.831-7.718 7.161-15.514 14.294-22.656 22.003-12.902 13.93-24.432 28.781-30.701 47.174-3.302 9.687-7.737 18.989-11.577 28.493-1.056 2.621-1.824 5.367-2.727 8.055.538.422 1.075.844 1.603 1.267 4.138-3.149 8.276-6.298 12.701-9.677 2.448 4.858 4.397 8.726 6.346 12.586.739-.221 1.469-.432 2.208-.653.854-3.283 1.545-6.605 2.582-9.831 3.13-9.724 6.778-19.305 9.485-29.145 3.139-11.386 9.014-21.36 15.562-30.826 6.931-10.032 15.849-18.518 26.342-24.864 12.47-7.526 25.488-14.16 38.01-21.609a223.3 223.3 0 0 1 55.01-23.453c7.26-2.007 14.79-4.819 22.99-2.698-.48 4.983-4 7.392-6.55 10.397-4.99 5.866-6.76 12.317-3.84 21.658 1.2-3.111 2.13-4.455 2.17-5.828.23-7.593 4.03-13.228 9.31-18.24 5.58-5.299 10.96-10.8 16.49-16.272-.62-.873-.95-1.737-1.56-2.092l-.01.009zm-64.87 18.643c-17.43 8.573-34.79 17.328-51.828 26.65-9.178 5.021-18 10.877-26.343 17.194-9.533 7.219-16.579 16.646-23.011 26.908-9.936 15.85-12.989 34.176-20.842 50.18-3.753-1.152-7.536-2.314-10.992-3.37 8.602-42.346 35.472-73.114 69.495-97.978 23.761-17.366 70.881-31.363 87.221-29.155-8.5 3.399-16.35 5.962-23.7 9.581v-.01z"/><path fill="url(#i)" d="M1740.45 741.063c-11.19-13.191-21.51-27.034-30.02-42.183-5.28-9.398-11.08-18.508-16.35-27.916-.96-1.709-3.1-3.908-.78-6.864 2.71 2.112 5.09 4.3 7.79 5.99 5.22 3.264 10.44 6.682 16.03 9.158 2.78 1.229 6.68 2.17 10.25-1.987-21.3-2.582-33.19-16.637-43.86-33.456-1.11 1.891-2.45 3.13-2.46 4.387-.03 5.376.29 10.752.56 16.128.08 1.565.81 3.216.49 4.666-2.25 10.234-3.23 20.87-9.36 29.942-.79 1.172-.57 3.024-.82 4.56l2.7.634c3.47-8.813 6.93-17.625 10.53-26.784.59 1.046 1.08 1.68 1.34 2.4 7.3 20.141 17.09 39.062 28.26 57.283 1.55 2.525 3.24 5.002 5.12 7.287 11.36 13.766 24.14 26.14 37.25 38.208 8.28 7.632 17.97 13.008 28.24 17.184 4.38 1.776 9.32 3.916 14.97 1.651-2.07-4.205-8.5-3.994-8.19-9.418 8.48-.774 13.73-2.726 15.74-5.856-8.35-3.504-16.79-6.883-25.08-10.569-17.22-7.642-30.4-20.372-42.34-34.445h-.01zm54.26 44.073c-.19.49-.38.98-.59 1.479-3.11-.835-6.22-1.671-9.59-2.583-2.43 5.328 4.39 6.912 3.47 12.212-1.84-.452-3.91-.471-5.38-1.412-7.71-4.944-16.1-9.254-22.73-15.417-13.43-12.499-27.07-25.104-38.35-39.456-9.39-11.952-16.03-26.199-22.9-39.927-4.78-9.561-7.88-19.958-11.73-29.98.52-.317 1.04-.634 1.55-.951.9.951 2.02 1.776 2.68 2.871 9.71 16.204 18.56 32.995 29.24 48.537 11.45 16.685 24.74 32.026 40.52 45.043 7.18 5.924 14.81 10.724 23.41 14.189 3.6 1.45 6.93 3.581 10.38 5.405l.02-.01z"/><path fill="url(#j)" d="M874.243 214.369c-6.768-.903-13.776-.404-20.64.105-2.64.192-4.637 2.314-4.665 5.712a1286.026 1286.026 0 0 1-.624 31.613c-.461 14.563-.768 29.146-1.7 43.69-1.094 16.924-2.985 33.792-4.156 50.716-.711 10.234-.442 20.535-1.095 30.768-.777 12.336-2.064 24.644-3.014 35.616.326 4.618.72 7.853.749 11.088.038 4.8 2.361 7.978 6.95 8.544 6.096.759 12.346 1.45 18.413.903 7.113-.643 8.611-2.746 9.321-9.831.538-5.356.605-10.761 1.056-16.128 1.364-16.128 2.832-32.246 4.244-48.374.192-2.15.23-4.32.47-6.47 1.373-12.596 3.149-25.162 4.08-37.786 1.459-19.853 2.506-39.744 3.427-59.626.375-8.035.25-16.118-.211-24.153-.47-8.112-3.6-15.197-12.586-16.397l-.019.01zm8.813 31.276c-1.066 24.538-2.265 49.076-3.792 73.594-.806 12.902-2.467 25.757-3.581 38.65-1.027 11.836-1.689 23.712-2.822 35.539-.903 9.389-2.227 18.739-3.495 28.089-.48 3.572-2.659 5.78-6.316 6.288-1.863.26-3.754.538-5.626.5-14.102-.25-14.861-.682-14.554-14.468.279-12.393 1.594-24.758 2.247-37.142.614-11.597.72-23.232 1.488-34.819 1.008-15.072 2.515-30.115 3.677-45.178.537-6.989.873-13.987 1.123-20.995.614-17.558 1.123-35.117 1.709-52.666.048-1.296.374-2.582.729-4.915 6.173 0 11.578-.326 16.935.077 6.902.518 10.291 3.619 11.28 10.522.796 5.577 1.248 11.299.998 16.924z"/><path fill="url(#k)" d="M812.381 256.839c-10.378-1.21-20.851-2.352-31.498 1.315-1.373 22.454-2.784 44.026-3.984 65.597-.72 12.941-.864 25.92-1.728 38.861-.748 11.289-2.294 22.521-3.206 33.792-.634 7.785-1.152 15.619-1.056 23.424.058 5.126 2.294 9.734 8.093 10.636 7.44 1.152 14.956 2.112 22.464 2.41 1.67.067 3.907-2.688 5.059-4.637.864-1.449.403-3.696.528-5.577 1.219-18.058 2.064-36.154 3.744-54.164 2.41-25.824 5.078-51.638 8.4-77.356 1.133-8.784.537-17.223-.576-25.786-.499-3.85-1.747-7.987-6.24-8.515zm2.122 40.781c-1.354 13.68-3.533 27.273-4.887 40.953-1.939 19.613-3.485 39.264-5.136 58.896a1300.013 1300.013 0 0 0-1.92 25.843c-.23 3.572-2.256 4.512-5.395 4.474-4.003-.048-8.006.115-12.01.096-5.952-.029-10.204-4.301-10.022-11.328.288-11.059 1.114-22.109 2.026-33.13 1.065-12.912 3.657-25.804 3.465-38.678-.317-21.37 2.775-42.518 2.621-63.85-.048-6.422 1.018-12.864 1.651-20.217 8.621-.576 17.098-1.498 25.594.221 3.005.604 3.744 3.12 4.368 6.057 2.208 10.291.653 20.487-.355 30.663z"/><path fill="url(#l)" d="M749.673 293.568c-6.7.365-13.392.778-20.092 1.133-6.596.346-8.64 2.227-9.168 8.765-.596 7.258-1.22 14.515-1.632 21.782-1.258 22.349-2.64 44.688-3.533 67.047-.49 12.374-.087 24.777-.087 38.064 9.514 2.006 17.597 4.012 25.796 5.337 4.569.739 9.206-3.859 9.619-8.899 2.592-31.728 5.165-63.466 7.622-95.213.711-9.129 1.037-18.288 1.479-27.436.345-7.248-3.188-10.954-9.994-10.58h-.01zm4.56 30.298c-1.305 25.584-2.851 51.149-4.569 76.713-.509 7.517-1.632 15.015-2.919 22.445-1.296 7.507-2.332 7.978-9.657 6.624-3.447-.633-6.903-1.209-10.378-1.612-6.653-.778-7.286-.999-7.315-7.911-.067-14.304-.038-28.617.547-42.902.701-16.954 1.978-33.888 3.091-50.832.567-8.592 1.345-17.165 2.122-26.919 2.966-.249 5.309-.547 7.661-.614 3.773-.106 7.565.086 11.328-.125 9.408-.509 9.177-.566 9.005 9.206-.096 5.3 1.353 10.647 1.084 15.927z"/><path fill="url(#m)" d="M828.729 180.922c-2.697.192-5.424.154-8.073.576-1.268.202-2.41 1.229-3.61 1.882.135.576.279 1.152.413 1.737 8.64 1.008 17.078-2.304 27.523-2.361-9.417 7.603-17.472 14.304-25.747 20.726-8.304 6.442-16.944 12.461-25.219 18.941-8.506 6.662-16.675 13.737-25.123 20.467-8.218 6.557-16.388 13.2-24.97 19.258-11.155 7.872-21.216 16.483-22.762 20.438 2.676.07 5.149-.813 7.421-2.65 18.221-14.774 36.307-29.731 54.711-44.294 19.689-15.581 39.638-30.826 59.548-46.118 3.255-2.506 6.903-4.493 10.925-7.085-.278 8.976-8.371 14.688-6.461 24.48 4.935-4.003 5.434-8.717 7.277-12.682 2.035-4.387 3.869-8.918 6.442-12.979 2.438-3.84 5.923-6.998 8.573-10.714 2.64-3.705 8.294-4.934 9.072-10.569-5.127.499-5.079.576-8.88 3.36-12.317 9.043-25.344 16.473-41.06 17.577v.01z"/><path fill="url(#n)" d="M374.39 698.852c-1.939-2.794-4.684-5.079-6.335-7.997-2.381-4.205-5.991-5.155-10.225-5.117-7.574.067-15.148.355-22.723.327-12.72-.048-25.44-.24-38.15-.442-21.859-.346-43.728-1.248-65.587-.97-19.968.25-39.927 1.719-59.885 2.708-6.211.307-12.442.48-18.595 1.276-11.348 1.479-11.204 1.671-12.548 12.903-2.659 22.262-5.068 44.563-8.486 66.71-.902 5.846.97 9.85 4.416 12.855 4.31 3.763 7.67 9.36 14.438 9.811 1.114.076 2.381 1.305 3.168 2.323 5.405 7.037 13.421 8.736 21.351 10.281 15.446 3.015 30.403-.623 45.571-3.542 1.478-6.576 2.89-12.845 4.474-19.901 5.452-.873 11.145-1.785 18.508-2.966-2.035-1.565-2.899-2.746-3.945-2.938-4.579-.864-4.877-3.244-4.464-7.593 1.171-12.336 1.459-24.768 2.025-37.162.01-.307-.739-.643-1.42-1.2-1.834 1.027-3.783 2.112-6.154 3.437-.23-2.784-.461-4.925-.557-7.066-.105-2.438.279-4.944-.182-7.296-2.823-14.4.873-12.077 12.144-12.364 18.057-.452 36.067 2.304 54.23-.212 10.243-1.411 20.851-.259 31.882-.259-.432 3.283-1.104 6.893-1.344 10.531-.24 3.619-.048 7.258-.048 10.397-3.629.269-6.931-.413-9.149.826-9.715 5.433-15.878 23.645-12.49 34.387 2.967 9.389 7.93 16.474 18.653 17.904-.317 7.411.826 14.371-1.776 20.65-17.28 0-33.965.009-50.649 0-4.531 0-9.072.115-13.575-.231-9.686-.729-19.344-1.776-29.03-2.544-1.047-.086-2.17.787-4.167 1.584 1.757 1.152 2.564 2.103 3.428 2.17 10.483.873 20.976 1.968 31.478 2.313 19.728.643 39.466.807 59.194 1.248 2.419.058 4.876.375 7.238.893 6.758 1.498 13.286 1.68 19.872-1.181 2.323-1.008 5.29-.604 7.968-.662 6.941-.154 13.882-.211 20.4-.307 0-5.242-.144-9.543.029-13.834.749-19.123 1.709-38.246 2.342-57.379.221-6.739-.758-13.536-.23-20.227.326-4.243 1.584-8.381-1.056-12.183l-.039.039zm-3.936 6.336H353.28c-1.939-2.794-3.504-5.223-5.251-7.517-1.527-1.997-3.264-3.83-5.827-6.816 19.987-2.822 26.112.403 28.262 14.323l-.01.01zm-215.971-13.469h38.477a8891.13 8891.13 0 0 1 6.566 9.677c-8.467.796-15.84 1.536-23.222 2.179-2.688.23-5.405.211-8.102.336-7.152.336-11.952-2.851-14.631-9.869-.134-.355.355-.96.912-2.313v-.01zm-5.577 84.451c-.202 2.055-.605 4.099-1.162 7.738-3.83-2.842-6.605-4.531-8.899-6.711-2.371-2.246-3.447-4.876-2.967-8.649 2.304-18.144 4.09-36.346 6.125-54.528.653-5.856 1.498-11.693 2.256-17.549 6.269 1.536 12.125 8.794 11.52 14.784-1.075 10.723-2.534 21.398-3.667 32.112-1.162 10.925-2.112 21.869-3.197 32.803h-.009zm51.724-49.939c-.249 11.059-.547 22.118-1.075 33.168-.576 12.134-1.497 24.25-2.102 36.384-.192 3.792-2.035 5.741-5.578 5.203-9.043-1.354-18.173-2.515-26.985-4.829-6.461-1.699-12.327-10.771-11.76-17.136 1.977-22.32 4.281-44.601 6.508-66.902.106-1.018.672-1.997 1.354-3.936l39.677-2.726c0 7.43.125 14.102-.029 20.784l-.01-.01zm24.663-6.202c-1.354 21.255-3.379 42.461-5.175 63.677-.067.807-.24 1.603-.412 2.391-2.372 11.136-4.714 12.739-17.607 11.472 0-6.557-.144-13.21.029-19.844.461-17.789.96-35.568 1.661-53.347.297-7.469 1.133-14.918 1.766-22.925-2.102-2.889-4.665-6.432-8.064-11.116h17.779c2.66 4.435 5.204 8.832 7.892 13.142 3.254 5.203 2.467 11.117 2.121 16.55h.01zm4.608 18.48c3.744 8.448 2.064 28.81-3.149 35.482-1.411-12.672.029-23.386 3.149-35.482zm86.256-37.776c-11.578.499-23.165 1.287-34.743 1.258-16.704-.039-33.408-.519-50.092-1.152-7.431-.279-8.996-2.429-9.62-11.75 33.092-1.709 66.087-1.047 99.773 1.036 1.095 3.485 1.949 6.212 3.072 9.764-3.216.336-5.798.739-8.39.854v-.01zm8.189 69.85c-.058.739-.682 1.43-1.037 2.141-3.619.854-6.375-.519-8.794-2.976-8.611-8.765-8.525-28.023.423-36.336 1.622-1.507 4.204-2.381 6.46-2.717 3.668-.547 5.818 1.882 5.626 5.261-.672 11.558-1.709 23.097-2.678 34.637v-.01zm22.08-59.021c-1.268 9.763-.768 19.747-1.22 29.626-.432 9.686-1.094 19.363-1.66 29.04-.375 6.441-.663 12.902-1.2 19.334-.308 3.619-1.037 7.21-1.594 10.906-2.486.288-4.061.643-5.626.624-7.824-.087-8.812-1.056-8.198-9.101 1.354-17.693 2.986-35.366 4.291-53.059.432-5.837.183-11.712.298-17.578.086-4.233.576-8.486.278-12.691-.259-3.648-1.152-7.306-2.208-10.829-.662-2.217-2.16-4.176-4.137-7.853 5.664.548 10.291-1.43 12.979 2.381 4.013 5.683 9.091 10.771 7.997 19.191v.009zm21.657 87.408h-21.072c0-9.667-.211-18.797.058-27.897.326-10.983 1.037-21.965 1.622-32.938.403-7.526.692-15.072 1.364-22.579.528-5.943 2.467-7.22 8.524-6.567 4.013.432 8.036.797 12.893 1.277 1.21 29.27-1.315 58.637-3.379 88.714l-.01-.01z"/><path fill="url(#o)" d="M280.07 723.504c-7.555-1.689-13.593 1.642-17.299 9.677-1.92 4.167-3.609 8.429-5.558 12.586-4.407 9.389-1.949 17.741 3.437 25.862 2.361 3.562 5.443 5.04 8.966 4.944 7.939.154 12.634-3.869 16.07-9.888 4.676-8.208 5.914-17.347 6.672-26.477.692-8.371-4.54-14.956-12.288-16.694v-.01zm4.772 36.48c-1.172 3.418-3.572 6.74-6.221 9.274-5.261 5.04-11.511 3.859-15.744-1.978-4.637-6.393-4.215-13.44-1.891-20.054 2.112-6 5.5-11.693 9.139-16.973 3.571-5.184 12.902-4.176 15.686 1.507 1.613 3.303 2.199 7.114 3.159 10.368-1.402 6.375-2.208 12.298-4.119 17.856h-.009z"/><path fill="url(#p)" d="M1680.16 235.076c.11.019.21.028.31.048 0-.106-.02-.212-.02-.317-.07.038-.13.086-.2.125l-.09.144z"/><path fill="url(#q)" d="M1705.21 246.24c-1.46-1.152-3.22-1.939-4.91-2.755-4.31-2.074-8.66-4.061-13.69-6.413 1.76-3.206 3.51-5.894 4.77-8.803 1.8-4.176 4.36-8.448 4.61-12.797.71-12.288-4.44-22.646-13.8-30.355-8.61-7.085-18.38-12.634-29.66-14.179-9.33-1.277-18.77-1.92-28.19-2.419-17.25-.922-35.95 11.136-39.77 29.241-.27 1.267-1.01 2.429-1.72 4.099-11.12-3.004-22.21-4.233-32.73-1.094-3.41-6.067-6.71-11.52-9.61-17.184-4.46-8.688-13.66-10.954-20.93-15.83-.8-.538-2.1-.471-3.16-.471-7.49 0-15 .49-22.45-.019-10.4-.701-20.4 1.517-30.57 2.784-8 .999-15.19 3.523-21.4 8.583-4.97 4.041-9.7 8.361-14.73 12.739-.52-.068-1.32-.116-2.08-.298-9.98-2.342-13.34-.25-15.23 9.571-.26 1.325-.53 2.659-.64 4.003-.45 5.156.9 6.922 6.12 7.373 3.19.279 6.43.048 9.81.048 1.78 4.637 2.87 9.495 5.38 13.488 2.61 4.157 6.57 7.469 10.23 11.472-5.48 4.695-11.14 9.543-17.11 14.65 1.47 3.053 2.03 6.451 4.04 8.016 6.62 5.165 15.26 2.736 18.56-5.088 1.93-4.608 2.99-9.581 4.44-14.371 9.83 2.198 19.43 4.934 29.22 6.403 24.34 3.648 45.01-3.427 60.08-23.367 4.47-5.913 9.42-8.649 16.33-7.632 7.89 1.162 15.38-.153 23.19-2.774.28 2.458.11 4.733.85 6.662 2.08 5.482 3.32 11.962 7.09 15.975 8.47 9.005 19.17 14.803 32.01 15.744 3.75.278 7.5 1.037 11.19 1.843 13.16 2.899 25.82 1.229 38.03-4.176 4.16-1.843 8.14-4.099 12.34-6.24 3.83 3.226 5.66 7.171 6.66 11.847.82 3.83 1.41 8.102 5.93 9.945 5.16 2.112 10.95-.019 14.67-5.558 2.68-3.994 1.51-8.996-3.14-12.682l-.03.019zm-278.42-47.51c-1.72 9.6-.06 12.029-12.59 8.544-1.86-4.253-1.04-8.304 2.32-11.463 2.85-2.688 6.33-2.342 9.8-.048.15.912.64 1.997.47 2.957v.01zm2.75 57.417c1.49-8.678 8.8-11.75 15.98-16.694-.04 13.939-5.44 21.763-15.98 16.694zm98.37-24.441c-9.86 7.008-20.82 11.673-32.86 12.777-5.54.509-11.36-.201-16.84-1.363-8.85-1.881-17.53-4.598-26.28-6.96 0-.701-.01-1.411-.02-2.112 8.46-6.163 18.38-8.553 28.46-10.416 9.01-1.67 18.11-2.918 27.1-4.742 10.13-2.054 20.27-2.784 31.42-2.016-2.7 6.23-5.92 11.241-10.98 14.832zm-21.76-27.744c-4.89-1.066-10.19-1.21-15.17-.634-8.21.951-16.09-.739-24.11-1.545-11.12-1.114-22.26-.941-33.44 1.468 11.81.778 23.61 1.728 35.44 2.295 12.34.595 24.72.605 37.05 1.305 11.98.682 23.94 1.911 35.9 2.9.15.374.31.748.47 1.113-1.08.538-2.17 1.594-3.23 1.546-16.99-.663-33.1 4.445-49.54 7.382-1.33.24-2.65.682-3.98.653-11.7-.23-22.25 3.917-32.59 8.688-8.49 3.917-12.85 2.966-18.47-4.617-7.58-10.244-6.31-28.58 2.83-37.44 6.49-6.289 13.99-10.541 23-12.884 17.36-4.512 34.85-4.022 52.29-2.352 14.51 1.392 24.66 10.128 30.76 23.146 1.38 2.918.85 6.729 1.22 10.435-13.47.125-25.96 1.238-38.43-1.478v.019zm58.18 3.974c-5.07.25-10.75-1.2-14.38 4.253-.23.346-1.43.048-2.66.048.31-6.662 4.61-9.034 9.19-9.072 6.83-.067 13.7 1.21 20.52 2.131 1.09.144 2.02 1.45 3.5 2.583-5.92 0-11.05-.202-16.17.057zm46.62-33.782c10.31-2.947 20.61-3.341 31.25-1.383 11 2.026 21.46 4.618 31.21 10.608 7.51 4.608 12.74 10.436 16.51 19.287-11.64 1.219-22.71-1.104-33.8-.931-11.07.163-22.16-.73-33.23-.547-11.27.182-22.53 1.123-33.85 1.727-.03-13.852 8.8-25.017 21.9-28.761h.01zm69.5 60.653c0 .105.02.202.02.317-.1-.02-.2-.039-.31-.048-1.16 1.881-1.92 4.406-3.6 5.433-12.67 7.805-26.1 12.557-41.36 9.35-9.98-2.092-20.48-1.728-29.89-6.364-10.6-5.223-18.81-12.5-20.51-24.989-.3-2.218.22-4.551.38-7.2 6.2.873 11.44 1.584 16.67 2.361 10.1 1.498 20.34 2.401 30.26 4.685 15.64 3.619 31.84 6.01 45.25 16.09.7.528 1.82.48 2.81.624l.09-.144c.07-.039.13-.087.2-.125-.11-3.494-1.81-5.923-5.15-7.094-8.13-2.842-16.1-6.48-24.47-8.218-18.37-3.83-36.96-6.643-55.44-9.974-1.92-.346-3.72-1.306-5.42-2.573 33.62-4.051 67.03-2.803 100.42.806 3.76 9.619-.84 22.08-9.94 27.063h-.01zm23.06 23.548c-4.19 3.687-7.8 4.08-9.44.384-1.86-4.204-2.56-8.937-3.96-14.198 6.36.403 10.47 2.918 14.21 5.76 3.16 2.4 2.65 5.021-.81 8.054z"/><path fill="url(#r)" d="M1704.56 198.135c-2.33-.509-5.29-1.843-7.52 1.977 3.71 3.149 8.4.816 12.89 2.592 3.16 9.428 1.33 11.962-7.91 11.117-1.1-.105-2.26.375-4.58.797 6.2 5.04 11.24 3.293 16.31 1.114.41-1.306.8-2.304 1.01-3.341.86-4.167 2.3-8.4-.46-12.413-2.58-3.754-6.51-1.133-9.74-1.843z"/><path fill="url(#s)" d="M1282.24 301.853c-10.36-1.766-20.79-4.118-31.23-4.349-27.58-.605-55.18-.24-82.77-.201-8.35.009-16.69.211-25.04.403-5.95.134-11.97 1.142-17.81.47-14.65-1.699-29.04-.979-43.53 1.69-8.94 1.651-15.93 5.981-21.97 11.817 1.01 2.9 2.57 5.309 2.53 7.69-.17 9.926-.86 19.843-1.29 29.77-.74 17.011-1.5 34.012-2.1 51.033-.2 5.674.3 11.367.13 17.031-.58 19.449-1.01 38.918-2.04 58.348-1.22 22.916-2.95 45.812-4.59 68.698-.82 11.578-2.14 23.127-2.83 34.714-.95 15.897-1.48 31.814-2.3 47.721-.19 3.744 1.24 6.336 4.6 7.728 3.98 1.642 7.97 3.994 12.12 4.416 20.13 2.016 40.29 4.138 60.49 4.963 22.91.941 45.87.663 68.81.72 12.45.029 24.92-.038 37.34-.652 10.23-.509 20.49-1.402 30.61-3.005 9.2-1.45 16.64-11.885 16.14-20.602-.3-5.059-.33-10.176.12-15.216.83-9.677 2.64-19.296 3.06-28.972 1.05-24.298 1.12-48.644 2.45-72.932 1.09-20.198 3.38-40.339 5.17-60.508.67-7.527 1.84-15.034 2.15-22.57.83-20.189 1.18-40.407 1.97-60.595.61-15.696.7-31.344-1.86-46.915-.85-5.156-2.64-9.706-8.33-10.676v-.019zm5.61 90.71c-.48 16.714-.69 33.6-3.29 50.045-2.72 17.184-3.77 34.378-4.53 51.639-.9 19.968-.67 39.993-1.86 59.942-1.19 19.93-3.51 39.792-5.35 59.683-.3 3.226-.57 6.461-1 9.677-1.03 7.651-4.36 12.038-11.93 13.334-9.82 1.681-19.77 2.871-29.72 3.351-18.34.902-36.72 1.488-55.08 1.565-22.42.086-44.83-.423-67.17-2.88-9.39-1.037-18.87-1.133-28.29-1.872-4.83-.384-9.63-1.191-14.43-1.93-10.89-1.661-13.85-5.242-13.44-16.128.09-2.698.11-5.405.29-8.102 1.42-21.821 2.89-43.632 4.29-65.453.85-13.478 1.58-26.967 2.36-40.455.95-16.454 2.17-32.889 2.79-49.363.75-19.968.8-39.955 1.52-59.923.93-25.93 2.14-51.84 3.44-77.75.44-8.727 3.6-11.386 11.95-13.728 16.23-4.551 32.71-3.312 49.19-3.034 1.89.029 3.78.173 5.67.259v-.585c8.93 0 17.87.105 26.79-.019 21.64-.298 43.29-1.201 64.93-.893 15.63.221 31.24 1.91 46.85 3.129 2.92.231 6 .864 8.58 2.16 1.94.97 4.19 3.091 4.6 5.05 1.48 7.085 3.02 14.314 3.14 21.514.3 20.246.28 40.521-.3 60.758v.009z"/><path fill="url(#t)" d="M1252.62 435.552c-4.57-.403-9.19-.23-13.78-.441-20.49-.931-40.99-2.208-61.5-2.765-16.78-.451-33.58-.24-50.36.019-12.78.192-25.55-2.966-38.42 1.613-3.89 1.382-5.39 2.525-5.6 5.971-.89 14.275-1.4 28.57-2.55 42.826-1.77 22.051-4.01 44.073-5.96 66.115-1.8 20.438-3.49 40.886-5.21 61.325-.18 2.16.61 4.041 3.02 3.619.76-.134 1.52-2.458 1.61-3.821.46-7.718.72-15.456 1.08-24.029 12.87-1.056 24.72-.835 36.05 1.815 2.39 8.88-4.28 16.714-.15 26.342 4.79-9.091 2.92-17.904 5.65-25.584 1.02-.336 1.79-.854 2.51-.787 10.48 1.008 20.94 2.112 31.41 3.158 3.24.327 3.86 2.391 3.55 5.146-.8 6.96-1.59 13.91-2.55 22.31-8.88-.451-17.15-.604-25.38-1.363-8.32-.758-16.58-2.822-24.9-3.014-8.07-.182-15.84-3.802-24.13-1.939 1.16 1.344 2.4 2.428 3.78 2.62 6.4.922 12.83 1.757 19.27 2.324 22.56 1.996 45.1 4.608 67.71 5.596 23.99 1.047 48.05 1.652 72.09.269 10.35-.595 10.78-.662 12.88-10.464.4-1.843.62-3.734.75-5.625.63-9.159 1.06-18.327 1.83-27.476 1.56-18.278 3.46-36.518 4.9-54.806 1.14-14.525 1.98-29.078 2.63-43.642.46-10.204.41-20.428.55-30.643.06-3.993 0-7.987 0-12.633-4.05-.788-7.4-1.728-10.8-2.036h.02zm-119.15.49c13.56-.336 26.83-.269 40.73-.048-1.53 9.859-2.88 18.518-4.32 27.715-13.76-1.037-25.72-1.949-38.45-2.909.69-8.448 1.32-16.089 2.03-24.758h.01zm-8.31 86.918c.98-10.128 1.82-18.912 2.74-28.406 13.22.682 25.49 1.315 38.47 1.987a47511.86 47511.86 0 0 0-4.47 29.53c-12.38-1.047-24.04-2.035-36.74-3.111zm32.75 35.77c-12.87-1.296-24.81-2.506-38.01-3.83 1.49-9.668 2.81-18.327 4.3-28.003 12.41.921 24.35 1.804 36.86 2.726.52 9.888-1.96 18.701-3.15 29.107zm8.64-31.565c-1.15-10.905 2.61-20.409 3.82-31.017 14.43 1.401 27.75 2.688 42.14 4.08-2.12 10.512-4.01 19.948-6.24 30.988l-39.72-4.06v.009zm38.3 7.776c-1.31 10.282-2.49 19.517-3.81 29.952-12.98-1.766-25.4-3.465-38.62-5.26 1.12-10.09.29-19.681 4.13-28.829l38.3 4.147v-.01zm-32.93-42.144c0-6.893-.18-12.019.05-17.117.29-6.153 1.51-6.998 7.43-6.336 8.82.999 17.65 1.844 26.48 2.861 2.64.307 5.26.951 9.05 1.652l-2.17 22.463c-13.82-1.19-27.27-2.352-40.84-3.523zm-3.49-25.075c-.4 8.352-.75 15.792-1.19 25.056-13.27-.634-25.55-1.229-38.23-1.834-1.58-8.976.83-16.694 1.74-25.171 12.88-1.651 25.11 1.123 37.68 1.939v.01zm-82.13-27.773c14.21-8.265 28.14-4.32 42.15-3.609 0 6.528.24 12.652-.09 18.748-.2 3.495-2.75 4.868-6.26 4.81-6.75-.115-13.51-.019-20.26-.019h-15.41c-1.63-6.24.33-13.095-.13-19.939v.009zm29.92 113.53c-11.8-.067-22.91-1.767-33.96-.787l-.45 1.824c1.43.652 2.82 1.814 4.27 1.881 5.67.288 11.36.154 17.05.327 3.97.124 7.95.499 13.02.825-1.14 8.928-2.19 17.04-3.33 25.978-12.47-1.2-23.88-2.295-36.04-3.456-2.06-5.933-.12-12.586.12-19.143.78-21.878 6.71-43.248 6.25-65.289-.17-8.333.91-16.704 1.55-25.047.17-2.092.85-4.147 1.36-6.518h40.13c-.03 8.765-.1 16.906-2.87 25.776-11.94 1.229-24.06-2.141-36.22-1.181.33 4.051 2.67 3.984 4.79 4.051 7.85.231 15.7.375 23.54.596 8.02.22 8.98 1.44 8.08 9.12-.54 4.55-.56 9.158-1.02 13.718-.61 6.096-1.64 6.922-7.66 6.557-8.35-.519-16.7-1.133-25.06-1.632-1.45-.087-2.93.201-4.44 1.065 10.97 5.866 23.83 1.085 35.2 5.463-1.51 9.033-2.87 17.203-4.31 25.881v-.009zm.46 29.587c1.13-8.371 2.19-16.186 3.3-24.47 5.93.537 10.94.979 15.94 1.449 5.35.499 10.68 1.239 16.04 1.488 4.2.192 5.7 1.805 5.07 6.067-.94 6.346-1.42 12.759-2.22 20.228-13.24-1.191-25.49-1.508-38.13-4.762zm78.63 37.104c-12.18-.528-25.17-1.094-38.53-1.67-1.7-7.978.53-15.303 1.12-22.637.1-1.191 2.38-2.659 3.93-3.168 1.71-.567 3.77-.442 5.62-.173 9.78 1.45 19.55 3.043 30.21 4.733-.84 8.121-1.54 14.995-2.34 22.915h-.01zm-36.47-32.362c.9-8.313 1.72-15.955 2.66-24.662 13.5 1.939 26.35 3.783 40.01 5.741-.9 8.266-1.71 15.83-2.65 24.499-14.18-1.978-26.63-3.715-40.02-5.578zm87.71 30.519c-15.16 1.229-30.55 2.784-46.96 1.67.67-7.2 1.3-13.987 2.08-22.339l45.91 4.608c.91 2.829.57 8.182-1.02 16.061h-.01zm1.9-19.565c-15.25-1.766-30.09-3.494-45.8-5.318.83-7.44 1.29-13.834 2.44-20.112.26-1.431 2.8-2.784 4.57-3.485 1.38-.547 3.22-.211 4.81.029 11.72 1.766 23.43 3.6 36.05 5.548 1.41 7.632-.2 15.322-2.07 23.338zm4.04-28.81c-16.13 1.296-30.39-3.196-45.34-4.684-1.8-8.602-.74-16.724 1.08-24.845.77-3.446 3.32-3.917 6.18-3.735 13.39.845 26.77 1.738 40.49 2.64 2.38 10.512-2.81 19.834-2.41 30.634v-.01zm3.3-38.294c-.18 1.45-2.81 3.802-4.2 3.735-13.34-.701-26.66-1.825-40.48-2.871-.42-11.194 2.57-20.87 5.57-31.478 13.6 2.275 26.89 4.512 40.95 6.864-.59 8.323-.91 16.07-1.85 23.75h.01zm2.72-33.302c-.04 3.235-1.68 5.222-5.07 4.8-12.26-1.508-24.52-3.063-36.77-6.74.29-4.195.39-7.91.85-11.587.43-3.437 1.24-6.825 2.04-11.078 13.6 1.555 26.06 2.976 38.97 4.454 0 7.335.05 13.738-.02 20.151zm.06-24.932c-13.39.663-25.91-1.852-39.16-3.504 1.1-10.166 2.12-19.632 3.14-29.107-7.28 8.016-3.72 18.845-7.84 28.186-2.23 0-4.36.182-6.45-.029-9.36-.979-18.7-2.074-28.06-3.12-6.33-.71-7.16-1.67-6.07-7.584 1.3-7.114 2.71-14.208 4.16-21.821 6.59 0 13.26-.182 19.92.048 9.98.346 19.95.941 29.92 1.507 8.35.471 16.71.932 25.04 1.632 5.48.461 6.38 1.268 6.32 6.25-.09 8.89-.57 17.77-.93 27.533l.01.009z"/><path fill="url(#u)" d="M1259.14 333.706c-6.29-4.397-13.34-5.654-20.76-5.52-16.46.298-32.93.922-49.39.922-11.05 0-22.1-.855-35.19-1.412-12.84.653-27.73.797-42.46 2.458-5.51.624-10.75 4.522-15.86 7.382-4.04 2.256-2.43 6.874-3.11 10.397-.75 3.926-.55 8.074-.47 12.125.1 4.032 1 8.064.8 12.067-.37 7.258-1.39 14.477-1.96 21.734-.35 4.474 1.16 6.116 5.85 6.807 1.57.23 3.19.307 4.79.298 15.66-.068 31.31-.336 46.97-.212 16.4.125 32.8.941 49.18.826 16.98-.115 33.94-.97 50.9-1.498 1.36-.038 2.73.068 4.05-.124 5.44-.807 7.09-3.063 7.32-8.602.7-16.983 1.45-33.965 2.49-50.928.21-3.207-.67-4.963-3.15-6.701v-.019zm-1.47 12.825c-.65 13.21-1.63 26.4-2.41 39.6-.15 2.381-.02 4.772-.02 8.4-3.16.625-6 1.613-8.86 1.69-28.89.71-57.77 1.526-86.67 1.766-13.76.116-27.52-1.065-41.3-1.391-4.56-.106-9.14.959-13.7.883-8.39-.144-9.47-1.767-9.24-10.253.33-12.432.26-24.874.59-37.306.08-3.081 0-7.017 1.77-9.024 3.09-3.542 7.07-6.643 12.38-7.027 7.81-.566 15.58-1.901 23.38-1.978 25.97-.259 51.94-.095 77.91-.095 8.89 0 17.77-.039 26.66.028 2.7.02 5.44.077 8.08.557 9.33 1.671 11.89 4.714 11.43 14.17v-.02z"/><path fill="url(#v)" d="M328.109 181.949c-4.051-3.1-8.141-6.163-12.567-9.513 0-.701.048-1.747 0-2.794-.451-9.245-5.846-16.272-14.457-19.248-4.839-1.68-9.437-4.137-14.352-5.501-4.858-1.344-10.051-2.755-14.957-2.38-11.818.892-23.635 2.342-35.299 4.444-12.096 2.189-21.619 7.997-24.72 21.245-.768 3.274-.672 6.096 1.488 8.295 5.078 5.155 9.965 10.665 18.355 10.358 3.101-.115 6.25 1.114 9.619 1.776-.461 1.661-.902 2.659-.979 3.686-.461 5.895-.163 12.317 5.789 14.842 7.353 3.11 15.35 4.886 23.222 6.518 5.242 1.085 10.752.989 16.147 1.248 11.588.567 23.204 2.237 34.743-.537a11.34 11.34 0 0 1 2.419-.307c5.203-.135 7.219 2.88 5.414 7.891-1.843 5.126-6.086 6.672-10.838 7.113-8.87.826-17.808 2.304-26.63 1.834-12.855-.682-25.94-.96-38.103-6.355-5.472-2.429-6.374-3.725-5.913-9.879.115-1.555-.26-3.139-.413-4.713-2.237 1.065-3.216 2.246-3.706 3.6-.624 1.699-.845 3.552-1.257 5.405-2.775.508-5.204.758-7.517 1.42-8.679 2.477-11.539 6.701-11.799 15.792-.201 7.047.183 13.94 2.103 20.746.384 1.373.057 3.024-.202 4.502-1.747 10.023 1.027 14.084 10.867 15.706 1.066.173 2.16.192 3.226.355 20.237 3.063 40.445.672 60.653-.393a28.077 28.077 0 0 0 8.678-1.901c2.141-.845 4.992-2.304 5.626-4.138 2.467-7.171 4.656-14.525 6.009-21.984.893-4.905.164-10.099.164-14.621 1.44-1.065 2.025-1.66 2.736-2.006 9.753-4.656 10.809-6.47 10.06-16.675-.105-1.45.144-3.149.836-4.397 3.926-7.008 2.553-21.917-2.727-27.744-.547-.605-1.085-1.229-1.728-1.718l.01.028zm-98.976 45.485c4.061-3.561 8.496-4.915 14.121-2.544 7.392 3.111 15.015 6.384 22.848 7.555 12.164 1.805 24.461 4.052 36.96 1.642 3.725-.72 8.16-1.373 11.348 2.995-4.042 8.467-11.463 9.475-19.018 9.917-19.21 1.123-38.246-.922-57.235-3.427-2.343-.307-4.618-1.479-6.826-2.458-5.875-2.601-7.065-9.408-2.198-13.67v-.01zm72.221 45.379c-21.792 1.805-43.623 4.052-65.453.221-1.584-.278-3.178-.681-4.675-1.277-2.996-1.19-4.042-3.686-3.188-6.576.768-2.611 2.794-3.408 5.703-3.158 11.28.979 22.589 2.141 33.897 2.304 11.837.173 23.693-.739 35.549-1.142 2.362-.077 4.743-.01 7.191-.01-1.056 6.605-2.938 9.139-9.024 9.648v-.01zm10.224-16.905c-4.1 2.957-8.717 3.984-13.661 4.185-11.04.452-22.071 1.095-33.12 1.46-2.65.086-5.328-.663-7.997-.932-7.238-.72-14.525-1.113-21.706-2.169-7.382-1.075-9.321-5.261-6.508-12.653 14.39 1.805 28.723 4.598 43.152 5.136 14.064.528 28.214-1.248 42.777-2.035 1.008 2.765-.24 5.069-2.928 6.998l-.009.01zm16.809-67.632c-8.275 10.483-19.949 9.619-30.72 9.734-11.529.125-23.078-1.517-34.608-2.467-5.299-.442-10.531-1.229-16.281-5.174 2.995-.308 4.704-.692 6.384-.615 12.403.528 24.796 1.21 37.2 1.728 5.433.231 11.059.288 15.456-3.427 3.148-2.659 5.625-6.125 9.177-10.09 6.087 1.114 8.947 6.72 13.402 10.32l-.01-.009zm-93.033-37.498c12.412-2.275 24.979-3.907 37.555-5.021 4.339-.384 9.005 1.124 13.296 2.477 5.117 1.603 9.955 4.08 14.985 5.971 5.04 1.892 7.306 6.048 9.6 10.983-8.102 5.597-16.636 5.99-25.334 5.366-10.982-.787-21.955-1.977-32.947-2.515-10.397-.499-19.891-3.984-30.01-7.459 2.218-6.49 7.642-8.832 12.864-9.792l-.009-.01zm-7.613 31.056c-3.207-.883-6.211-3.293-8.727-5.645-3.542-3.312-3.254-6.518.25-12.374 29.011 10.963 59.136 11.174 89.51 8.822-.086 10.167-6.259 15.735-16.963 15.245-14.486-.662-28.992-1.085-43.44-2.198-6.941-.538-13.901-2.007-20.63-3.859v.009zm96.173 28.147c-14.429 3.437-28.944 1.844-43.45.97-9.658-.576-19.181-1.786-28.262-5.654-4.752-2.016-5.386-2.055-7.143-8.65 27.802 2.611 55.488 8.381 83.587.326 4.58 8.4 3.389 11.069-4.732 12.999v.009z"/><path fill="url(#w)" d="M282.941 150.49c-5.463-.221-9.015 3.149-9.197 8.736-.106 3.216 3.293 6.058 7.709 6.432 4.262.365 9.244-3.504 9.196-7.142-.048-3.715-4.041-7.882-7.708-8.026zm-4.071 9.687c.816-1.853 1.603-3.62 2.611-5.904 1.594.969 2.804 1.708 4.1 2.505-1.527 2.727-2.516 5.434-6.711 3.399z"/><path fill="url(#x)" d="M252.163 151.258c1.402 2.755 2.064 4.051 2.765 5.424l-8.477 5.194c7.594 2.476 12.97-.835 19.469-.586-1.286-2.371-2.093-3.83-2.947-5.414l4.368-4.963c-5.75-4.522-9.331 3.398-15.178.335v.01z"/><path fill="url(#y)" d="M1140.64-525.129c2.29 10.521 4.85 21.043 8.21 31.267 9.11 27.696 17.24 55.67 24.82 83.818 10.25 38.092 20.55 76.166 31 114.211a455.293 455.293 0 0 0 9.12 29.376c2.43 6.998 6.55 8.966 13.84 7.737 1.33-.22 2.69-.403 3.97-.796 19.09-5.914 38.18-11.799 57.23-17.818 21.63-6.835 43.15-14.054 64.86-20.64 19.38-5.875 38.87-11.472 58.49-16.464 7.17-1.824 12.74-4.234 14.28-11.453-1.12-4.233-2.03-7.286-2.74-10.387-.95-4.214-1.58-8.506-2.64-12.682-4.48-17.52-9.28-34.963-13.53-52.531-3.54-14.649-5.93-29.597-9.81-44.15a3754.787 3754.787 0 0 0-23.63-84.595h-5.47c2.41 7.766 4.81 15.532 7.2 23.299 5.04 16.387 9.79 32.87 14.61 49.315.76 2.582 1.25 5.251 1.89 7.882 6.71 27.772 13.45 55.536 20.11 83.318 2.7 11.251 5.29 22.522 7.73 33.821 1.73 8.025-.56 11.798-8.17 14.054-32.91 9.735-65.89 19.267-98.73 29.232-20.15 6.115-40.1 12.941-60.16 19.363-7.72 2.468-15.47 4.877-23.29 7.008-7.61 2.074-9.52 1.133-12.43-6.086-2.11-5.261-3.84-10.685-5.51-16.109-4.14-13.421-8.36-26.832-12.18-40.349-2.48-8.822-4.21-17.865-6.48-26.755-3.4-13.344-6.89-26.669-10.49-39.955-5.36-19.805-10.72-39.61-16.3-59.357-4.26-15.081-8.92-30.048-13.32-45.091-3.01-10.33-5.87-20.707-9.04-31.91.84-.509 1.72-1.085 2.63-1.68h-4.91c-.89 1.737-1.51 3.609-1.19 5.107h.03z"/><path fill="url(#z)" d="M1224.48-515.616c-15.36 4.186-30.83 7.911-46.23 11.933-1.3.336-2.39 1.421-3.58 2.16.15.567.3 1.123.46 1.69 2.21-.154 4.54.038 6.65-.528 13.79-3.667 27.52-7.584 41.31-11.251 7.54-2.007 15.43-2.986 22.71-5.645 13.01-4.743 26.14-9.015 39.38-12.979h-11.23c-3.83 1.142-7.65 2.275-11.48 3.417-12.66 3.763-25.25 7.738-37.99 11.213v-.01z"/><path fill="url(#A)" d="M1381.6-396.028c-5.54 1.152-10.99 2.707-16.51 3.926-18.68 4.119-37.46 7.815-56.04 12.327-20.68 5.02-41.19 10.771-61.78 16.147-6.25 1.632-12.58 2.976-18.81 4.685-1.11.307-1.91 1.757-2.85 2.678 52.02-10.406 102.3-26.573 154.38-34.953 2.04-.327 3.96-1.431 5.93-2.17.12-.71.23-1.411.35-2.122-1.57-.201-3.22-.825-4.67-.518z"/><path fill="url(#B)" d="M1369.46-432.451a93753.926 93753.926 0 0 0-153.91 33.821c-.44.096-.89.643-1.11 1.085-.21.432-.14 1.017-.32 2.851 1.84-.259 3.09-.346 4.3-.614 28.41-6.452 56.81-12.912 85.2-19.383 12.35-2.813 24.65-5.856 37.05-8.371 8.43-1.709 17.04-2.544 25.51-4.09 2.25-.412 5.54-.537 5.69-4.416-.99-.374-1.8-1.008-2.42-.873l.01-.01z"/><path fill="url(#C)" d="M1357.71-469.881c-15.02 3.206-30.02 6.441-44.98 9.907-25 5.789-49.96 11.741-74.93 17.664-9.18 2.179-18.36 4.416-27.51 6.749-2.64.672-5.85.653-7.29 3.667.73.758 1.17 1.488 1.44 1.43 6.85-1.392 13.76-2.601 20.52-4.377 12.01-3.159 23.89-6.787 35.89-9.975 7.04-1.862 14.19-3.312 21.32-4.828 20.05-4.272 40.15-8.343 60.18-12.788 6.7-1.488 14.01-.844 20.03-4.915l.15-2.131c-1.61-.154-3.31-.73-4.82-.403z"/><path fill="url(#D)" d="M1347.08-509.116c-6.07 1.181-12.09 2.621-18.08 4.157-19.3 4.963-38.54 10.147-57.87 14.976-24.85 6.211-49.75 12.163-74.62 18.297-1.29.317-2.41 1.306-3.75 2.064.83.931 1.25 1.69 1.48 1.632a85181.17 85181.17 0 0 0 153.89-36.95c1.23-.298 2.3-1.258 5-2.784-2.98-.73-4.63-1.671-6.05-1.392z"/><path fill="url(#E)" d="M1391.17-352.406c-7 1.843-14.01 3.725-21.08 5.328-24.72 5.587-49.47 11.069-74.21 16.589-15.78 3.523-31.59 6.921-47.3 10.704-2.47.595-6.11.365-7.59 4.973 52.37-11.597 103.96-23.021 155.68-34.464-1.22-3.783-3.14-3.744-5.5-3.13z"/><path fill="url(#F)" d="M502.723 405.86c-4.752-8.899-11.52-16.186-18.422-23.453-11.856-12.49-24.404-23.51-42.202-26.611-14.381-2.506-28.704-5.597-43.382-4.906-12.106.567-24.154 1.363-36.164 3.984-9.897 2.16-18.211 6.269-25.92 12.432-14.457 11.549-24.768 26.189-32.726 42.72-7.018 14.573-9.821 30.24-12.067 45.994-1.776 12.46-.97 25.334 3.629 36.758 4.358 10.839 10.963 21.341 18.691 30.144 17.03 19.373 38.621 31.978 64.397 36.038 11.961 1.882 24.144 3.293 36.22 3.226 13.488-.077 27.082-2.294 39.6-7.517 11.146-4.656 22.752-9.542 32.045-16.972 10.656-8.525 18.317-20.429 24.135-33.111 6.288-13.728 8.889-28.243 9.676-47.539-.979-5.904-1.545-16.349-4.656-25.987-2.86-8.861-8.4-16.867-12.844-25.2h-.01zm11.453 68.38c-1.306 5.204-1.776 10.618-3.245 15.764-9.427 32.947-31.306 53.174-63.946 62.572-11.529 3.322-23.308 5.741-35.126 5.175-18.259-.883-36.95-1.603-54-8.803-21.283-8.986-39.043-22.935-50.976-43.268-8.189-13.948-11.923-28.982-10.032-45.187 1.056-9.1 1.325-18.412 3.533-27.235 5.75-22.973 16.857-42.969 34.512-59.28 15.216-14.054 34.051-16.214 53.145-17.885 13.344-2.121 26.381.144 39.533 1.498 20.813 2.141 37.68 11.078 52.455 25.795 14.102 14.045 24.201 30.49 30.729 48.768 4.762 13.315 7.047 27.648 3.418 42.096v-.01z"/><path fill="url(#G)" d="M482.266 406.81c-5.156-10.118-12.154-17.789-22.503-23.011-11.856-5.99-23.491-12.48-36.797-14.189-12.249-1.574-24.624-2.102-36.95-3.014-1.325-.096-2.765.038-4.013.461-8.141 2.764-16.742 4.704-24.249 8.688-16.042 8.505-29.405 20.064-36.116 37.756-.96 2.525-2.265 4.916-3.36 7.392-5.472 12.471-9.6 25.268-9.254 39.12.038 1.354.077 2.746-.211 4.052-2.064 9.369.528 18.336 3.206 26.995 5.693 18.403 18.336 31.449 34.56 41.174 5.751 3.447 11.597 7.834 17.923 9.015 15.332 2.861 30.98 4.099 46.493 5.99 13.767-.633 26.698-4.109 39.639-8.045 27.475-8.371 43.392-26.544 48.892-54.672 1.776-9.081.221-17.673-.403-26.534-1.296-18.547-8.601-34.944-16.867-51.159l.01-.019zm2.035 103.536c-6.499 9.994-15.322 16.906-26.679 21.12-15.513 5.751-30.931 11.367-52.867 10.349-10.435-1.43-26.361.538-41.241-5.962-16.407-7.161-30.922-16.876-40.599-32.131-8.592-13.536-11.501-28.473-10.089-44.87 1.401-16.291 6.768-30.883 13.334-45.446 8.41-18.644 23.395-29.972 41.405-37.93 4.656-2.054 9.734-3.264 14.717-4.445 4.406-1.046 8.678-1.632 13.392.346 3.513 1.478 7.968.873 12.009.873 21.12.02 39.61 7.843 56.487 19.699 10.54 7.412 15.561 19.009 20.457 30.461.528 1.229.471 2.765 1.162 3.859 8.333 13.152 8.381 28.311 10.281 42.951 1.978 15.264-3.648 28.637-11.76 41.107l-.009.019z"/><path fill="url(#H)" d="M463.641 397.124c-2.928 2.813-5.75 6.009-9.062 8.563-3.619 2.794-7.949 4.685-11.491 7.546-3.13 2.534-8.88.739-10.349 6 2.592 2.659 4.714.816 6.883.019 2.045-.759 4.109-1.459 6.163-2.189.375.586.74 1.171 1.114 1.766-9.437 10.56-18.883 21.12-28.109 31.44-12.806-5.75-13.843-8.284-26.362 3.543-14.275-3.072-22.598-6.903-25.958-11.952 4.56-2.199 11.328.182 14.352-6.605-1.373-.326-2.285-.864-2.841-.624-6.202 2.746-12.644 2.659-19.152 1.699-2.247-.326-4.887-.797-5.29 1.92-.221 1.507 1.344 3.859 2.774 4.925 5.837 4.32 10.138 9.523 12.125 16.675.547 1.978 2.563 3.543 3.907 5.299.624-.316 1.239-.633 1.863-.96-1.22-4.07-2.439-8.14-4.176-13.968 7.795 3.284 13.872 5.837 18.24 7.68 1.286 6.749 1.171 12.202 3.398 16.426 3.216 6.106 13.699 7.92 20.448 4.781 6.97-3.245 11.29-10.618 9.37-17.827-1.469-5.511.182-9.236 3.811-13.066 6.864-7.248 13.392-14.822 20.141-22.186 1.536-1.68 3.436-3.024 6.48-5.664-.423 3.399-.701 4.925-.787 6.452-.097 1.843-.02 3.696-.02 6.95 2.084-1.354 4.483-2.15 4.512-3.043.365-10.003 5.684-17.875 10.714-25.863 2.064-3.273 1.459-5.462-2.678-7.737h-.02zm-45.773 67.699c-.451 6.586-6.086 11.107-13.593 10.896-7.776-.221-11.223-3.581-10.944-10.714.259-6.758 7.757-15.667 13.056-15.513 6.23.182 11.981 7.862 11.472 15.331h.009z"/><path fill="url(#I)" d="M324.153 459.485c11.261 1.93 12.567 1.536 15.85-5.318-11.251-.662-14.736.576-15.85 5.318z"/><path fill="url(#J)" d="M403.92 378.673c-2.774 1.468-4.618 1.852-4.8 2.64-1.162 4.896-1.814 9.868 1.162 15.331 6.537-4.954 2.304-10.925 3.638-17.971z"/><path fill="url(#K)" d="M405.542 529.901c.02.663 1.575 1.92 2.228 1.805 1.104-.182 2.832-1.133 2.956-1.968.596-4.003.797-8.093-2.611-12.461-3.974 4.147-2.669 8.544-2.573 12.615v.009z"/><path fill="url(#L)" d="M474.461 447.466c-2.295-.537-4.349-.182-3.994 4.138 3.83.288 7.786.585 12.384.941-1.162-6.336-5.501-4.397-8.4-5.079h.01z"/></g><defs><radialGradient id="b" cx="0" cy="0" r="1" gradientTransform="matrix(0 969 -2585.82 0 960 452.583)" gradientUnits="userSpaceOnUse"><stop offset=".084" stop-opacity="0"/><stop offset=".524" stop-opacity=".548"/><stop offset="1"/></radialGradient><radialGradient id="c" cx="0" cy="0" r="1" gradientTransform="matrix(0 969 -2585.82 0 960 452.583)" gradientUnits="userSpaceOnUse"><stop offset=".084" stop-opacity="0"/><stop offset=".524" stop-opacity=".548"/><stop offset="1"/></radialGradient><radialGradient id="d" cx="0" cy="0" r="1" gradientTransform="matrix(0 969 -2585.82 0 960 452.583)" gradientUnits="userSpaceOnUse"><stop offset=".084" stop-opacity="0"/><stop offset=".524" stop-opacity=".548"/><stop offset="1"/></radialGradient><radialGradient id="e" cx="0" cy="0" r="1" gradientTransform="matrix(0 969 -2585.82 0 960 452.583)" gradientUnits="userSpaceOnUse"><stop offset=".084" stop-opacity="0"/><stop offset=".524" stop-opacity=".548"/><stop offset="1"/></radialGradient><radialGradient id="f" cx="0" cy="0" r="1" gradientTransform="matrix(0 969 -2585.82 0 960 452.583)" gradientUnits="userSpaceOnUse"><stop offset=".084" stop-opacity="0"/><stop offset=".524" stop-opacity=".548"/><stop offset="1"/></radialGradient><radialGradient id="g" cx="0" cy="0" r="1" gradientTransform="matrix(0 969 -2585.82 0 960 452.583)" gradientUnits="userSpaceOnUse"><stop offset=".084" stop-opacity="0"/><stop offset=".524" stop-opacity=".548"/><stop offset="1"/></radialGradient><radialGradient id="h" cx="0" cy="0" r="1" gradientTransform="matrix(0 969 -2585.82 0 960 452.583)" gradientUnits="userSpaceOnUse"><stop offset=".084" stop-opacity="0"/><stop offset=".524" stop-opacity=".548"/><stop offset="1"/></radialGradient><radialGradient id="i" cx="0" cy="0" r="1" gradientTransform="matrix(0 969 -2585.82 0 960 452.583)" gradientUnits="userSpaceOnUse"><stop offset=".084" stop-opacity="0"/><stop offset=".524" stop-opacity=".548"/><stop offset="1"/></radialGradient><radialGradient id="j" cx="0" cy="0" r="1" gradientTransform="matrix(0 969 -2585.82 0 960 452.583)" gradientUnits="userSpaceOnUse"><stop offset=".084" stop-opacity="0"/><stop offset=".524" stop-opacity=".548"/><stop offset="1"/></radialGradient><radialGradient id="k" cx="0" cy="0" r="1" gradientTransform="matrix(0 969 -2585.82 0 960 452.583)" gradientUnits="userSpaceOnUse"><stop offset=".084" stop-opacity="0"/><stop offset=".524" stop-opacity=".548"/><stop offset="1"/></radialGradient><radialGradient id="l" cx="0" cy="0" r="1" gradientTransform="matrix(0 969 -2585.82 0 960 452.583)" gradientUnits="userSpaceOnUse"><stop offset=".084" stop-opacity="0"/><stop offset=".524" stop-opacity=".548"/><stop offset="1"/></radialGradient><radialGradient id="m" cx="0" cy="0" r="1" gradientTransform="matrix(0 969 -2585.82 0 960 452.583)" gradientUnits="userSpaceOnUse"><stop offset=".084" stop-opacity="0"/><stop offset=".524" stop-opacity=".548"/><stop offset="1"/></radialGradient><radialGradient id="n" cx="0" cy="0" r="1" gradientTransform="matrix(0 969 -2585.82 0 960 452.583)" gradientUnits="userSpaceOnUse"><stop offset=".084" stop-opacity="0"/><stop offset=".524" stop-opacity=".548"/><stop offset="1"/></radialGradient><radialGradient id="o" cx="0" cy="0" r="1" gradientTransform="matrix(0 969 -2585.82 0 960 452.583)" gradientUnits="userSpaceOnUse"><stop offset=".084" stop-opacity="0"/><stop offset=".524" stop-opacity=".548"/><stop offset="1"/></radialGradient><radialGradient id="p" cx="0" cy="0" r="1" gradientTransform="matrix(0 969 -2585.82 0 960 452.583)" gradientUnits="userSpaceOnUse"><stop offset=".084" stop-opacity="0"/><stop offset=".524" stop-opacity=".548"/><stop offset="1"/></radialGradient><radialGradient id="q" cx="0" cy="0" r="1" gradientTransform="matrix(0 969 -2585.82 0 960 452.583)" gradientUnits="userSpaceOnUse"><stop offset=".084" stop-opacity="0"/><stop offset=".524" stop-opacity=".548"/><stop offset="1"/></radialGradient><radialGradient id="r" cx="0" cy="0" r="1" gradientTransform="matrix(0 969 -2585.82 0 960 452.583)" gradientUnits="userSpaceOnUse"><stop offset=".084" stop-opacity="0"/><stop offset=".524" stop-opacity=".548"/><stop offset="1"/></radialGradient><radialGradient id="s" cx="0" cy="0" r="1" gradientTransform="matrix(0 969 -2585.82 0 960 452.583)" gradientUnits="userSpaceOnUse"><stop offset=".084" stop-opacity="0"/><stop offset=".524" stop-opacity=".548"/><stop offset="1"/></radialGradient><radialGradient id="t" cx="0" cy="0" r="1" gradientTransform="matrix(0 969 -2585.82 0 960 452.583)" gradientUnits="userSpaceOnUse"><stop offset=".084" stop-opacity="0"/><stop offset=".524" stop-opacity=".548"/><stop offset="1"/></radialGradient><radialGradient id="u" cx="0" cy="0" r="1" gradientTransform="matrix(0 969 -2585.82 0 960 452.583)" gradientUnits="userSpaceOnUse"><stop offset=".084" stop-opacity="0"/><stop offset=".524" stop-opacity=".548"/><stop offset="1"/></radialGradient><radialGradient id="v" cx="0" cy="0" r="1" gradientTransform="matrix(0 969 -2585.82 0 960 452.583)" gradientUnits="userSpaceOnUse"><stop offset=".084" stop-opacity="0"/><stop offset=".524" stop-opacity=".548"/><stop offset="1"/></radialGradient><radialGradient id="w" cx="0" cy="0" r="1" gradientTransform="matrix(0 969 -2585.82 0 960 452.583)" gradientUnits="userSpaceOnUse"><stop offset=".084" stop-opacity="0"/><stop offset=".524" stop-opacity=".548"/><stop offset="1"/></radialGradient><radialGradient id="x" cx="0" cy="0" r="1" gradientTransform="matrix(0 969 -2585.82 0 960 452.583)" gradientUnits="userSpaceOnUse"><stop offset=".084" stop-opacity="0"/><stop offset=".524" stop-opacity=".548"/><stop offset="1"/></radialGradient><radialGradient id="y" cx="0" cy="0" r="1" gradientTransform="matrix(0 969 -2585.82 0 960 452.583)" gradientUnits="userSpaceOnUse"><stop offset=".084" stop-opacity="0"/><stop offset=".524" stop-opacity=".548"/><stop offset="1"/></radialGradient><radialGradient id="z" cx="0" cy="0" r="1" gradientTransform="matrix(0 969 -2585.82 0 960 452.583)" gradientUnits="userSpaceOnUse"><stop offset=".084" stop-opacity="0"/><stop offset=".524" stop-opacity=".548"/><stop offset="1"/></radialGradient><radialGradient id="A" cx="0" cy="0" r="1" gradientTransform="matrix(0 969 -2585.82 0 960 452.583)" gradientUnits="userSpaceOnUse"><stop offset=".084" stop-opacity="0"/><stop offset=".524" stop-opacity=".548"/><stop offset="1"/></radialGradient><radialGradient id="B" cx="0" cy="0" r="1" gradientTransform="matrix(0 969 -2585.82 0 960 452.583)" gradientUnits="userSpaceOnUse"><stop offset=".084" stop-opacity="0"/><stop offset=".524" stop-opacity=".548"/><stop offset="1"/></radialGradient><radialGradient id="C" cx="0" cy="0" r="1" gradientTransform="matrix(0 969 -2585.82 0 960 452.583)" gradientUnits="userSpaceOnUse"><stop offset=".084" stop-opacity="0"/><stop offset=".524" stop-opacity=".548"/><stop offset="1"/></radialGradient><radialGradient id="D" cx="0" cy="0" r="1" gradientTransform="matrix(0 969 -2585.82 0 960 452.583)" gradientUnits="userSpaceOnUse"><stop offset=".084" stop-opacity="0"/><stop offset=".524" stop-opacity=".548"/><stop offset="1"/></radialGradient><radialGradient id="E" cx="0" cy="0" r="1" gradientTransform="matrix(0 969 -2585.82 0 960 452.583)" gradientUnits="userSpaceOnUse"><stop offset=".084" stop-opacity="0"/><stop offset=".524" stop-opacity=".548"/><stop offset="1"/></radialGradient><radialGradient id="F" cx="0" cy="0" r="1" gradientTransform="matrix(0 969 -2585.82 0 960 452.583)" gradientUnits="userSpaceOnUse"><stop offset=".084" stop-opacity="0"/><stop offset=".524" stop-opacity=".548"/><stop offset="1"/></radialGradient><radialGradient id="G" cx="0" cy="0" r="1" gradientTransform="matrix(0 969 -2585.82 0 960 452.583)" gradientUnits="userSpaceOnUse"><stop offset=".084" stop-opacity="0"/><stop offset=".524" stop-opacity=".548"/><stop offset="1"/></radialGradient><radialGradient id="H" cx="0" cy="0" r="1" gradientTransform="matrix(0 969 -2585.82 0 960 452.583)" gradientUnits="userSpaceOnUse"><stop offset=".084" stop-opacity="0"/><stop offset=".524" stop-opacity=".548"/><stop offset="1"/></radialGradient><radialGradient id="I" cx="0" cy="0" r="1" gradientTransform="matrix(0 969 -2585.82 0 960 452.583)" gradientUnits="userSpaceOnUse"><stop offset=".084" stop-opacity="0"/><stop offset=".524" stop-opacity=".548"/><stop offset="1"/></radialGradient><radialGradient id="J" cx="0" cy="0" r="1" gradientTransform="matrix(0 969 -2585.82 0 960 452.583)" gradientUnits="userSpaceOnUse"><stop offset=".084" stop-opacity="0"/><stop offset=".524" stop-opacity=".548"/><stop offset="1"/></radialGradient><radialGradient id="K" cx="0" cy="0" r="1" gradientTransform="matrix(0 969 -2585.82 0 960 452.583)" gradientUnits="userSpaceOnUse"><stop offset=".084" stop-opacity="0"/><stop offset=".524" stop-opacity=".548"/><stop offset="1"/></radialGradient><radialGradient id="L" cx="0" cy="0" r="1" gradientTransform="matrix(0 969 -2585.82 0 960 452.583)" gradientUnits="userSpaceOnUse"><stop offset=".084" stop-opacity="0"/><stop offset=".524" stop-opacity=".548"/><stop offset="1"/></radialGradient><clipPath id="a"><path fill="#fff" d="M0 0h1920v969H0z"/></clipPath></defs></svg>